<svg xmlns="http://www.w3.org/2000/svg" xmlns:xlink="http://www.w3.org/1999/xlink" width="500" zoomAndPan="magnify" viewBox="0 0 375 374.999991" height="500" preserveAspectRatio="xMidYMid meet" version="1.0"><defs><g/><clipPath id="0c0257e67c"><path d="M 37.5 37.5 L 337.5 37.5 L 337.5 337.5 L 37.5 337.5 Z M 37.5 37.5 " clip-rule="nonzero"/></clipPath><clipPath id="f85671239e"><path d="M 187.5 37.5 C 104.65625 37.5 37.5 104.65625 37.5 187.5 C 37.5 270.34375 104.65625 337.5 187.5 337.5 C 270.34375 337.5 337.5 270.34375 337.5 187.5 C 337.5 104.65625 270.34375 37.5 187.5 37.5 Z M 187.5 37.5 " clip-rule="nonzero"/></clipPath><clipPath id="69061380be"><path d="M 91.289062 91.289062 L 283.710938 91.289062 L 283.710938 283.710938 L 91.289062 283.710938 Z M 91.289062 91.289062 " clip-rule="nonzero"/></clipPath><clipPath id="24bc5b75ea"><path d="M 187.5 91.289062 C 134.363281 91.289062 91.289062 134.363281 91.289062 187.5 C 91.289062 240.636719 134.363281 283.710938 187.5 283.710938 C 240.636719 283.710938 283.710938 240.636719 283.710938 187.5 C 283.710938 134.363281 240.636719 91.289062 187.5 91.289062 Z M 187.5 91.289062 " clip-rule="nonzero"/></clipPath><linearGradient x1="-0.00000639113" gradientTransform="matrix(0.751634, 0, 0, 0.751634, 91.290903, 91.290898)" y1="0" x2="255.999983" gradientUnits="userSpaceOnUse" y2="0" id="c082467810"><stop stop-opacity="1" stop-color="rgb(65.098572%, 65.098572%, 65.098572%)" offset="0"/><stop stop-opacity="1" stop-color="rgb(65.234375%, 65.234375%, 65.234375%)" offset="0.0078125"/><stop stop-opacity="1" stop-color="rgb(65.507507%, 65.507507%, 65.507507%)" offset="0.015625"/><stop stop-opacity="1" stop-color="rgb(65.78064%, 65.78064%, 65.78064%)" offset="0.0234375"/><stop stop-opacity="1" stop-color="rgb(66.052246%, 66.052246%, 66.052246%)" offset="0.03125"/><stop stop-opacity="1" stop-color="rgb(66.325378%, 66.325378%, 66.325378%)" offset="0.0390625"/><stop stop-opacity="1" stop-color="rgb(66.598511%, 66.598511%, 66.598511%)" offset="0.046875"/><stop stop-opacity="1" stop-color="rgb(66.871643%, 66.871643%, 66.871643%)" offset="0.0546875"/><stop stop-opacity="1" stop-color="rgb(67.14325%, 67.14325%, 67.14325%)" offset="0.0625"/><stop stop-opacity="1" stop-color="rgb(67.416382%, 67.416382%, 67.416382%)" offset="0.0703125"/><stop stop-opacity="1" stop-color="rgb(67.689514%, 67.689514%, 67.689514%)" offset="0.078125"/><stop stop-opacity="1" stop-color="rgb(67.961121%, 67.961121%, 67.961121%)" offset="0.0859375"/><stop stop-opacity="1" stop-color="rgb(68.234253%, 68.234253%, 68.234253%)" offset="0.09375"/><stop stop-opacity="1" stop-color="rgb(68.507385%, 68.507385%, 68.507385%)" offset="0.101563"/><stop stop-opacity="1" stop-color="rgb(68.778992%, 68.778992%, 68.778992%)" offset="0.109375"/><stop stop-opacity="1" stop-color="rgb(69.052124%, 69.052124%, 69.052124%)" offset="0.117188"/><stop stop-opacity="1" stop-color="rgb(69.325256%, 69.325256%, 69.325256%)" offset="0.125"/><stop stop-opacity="1" stop-color="rgb(69.596863%, 69.596863%, 69.596863%)" offset="0.132812"/><stop stop-opacity="1" stop-color="rgb(69.869995%, 69.869995%, 69.869995%)" offset="0.140625"/><stop stop-opacity="1" stop-color="rgb(70.143127%, 70.143127%, 70.143127%)" offset="0.148438"/><stop stop-opacity="1" stop-color="rgb(70.41626%, 70.41626%, 70.41626%)" offset="0.15625"/><stop stop-opacity="1" stop-color="rgb(70.687866%, 70.687866%, 70.687866%)" offset="0.164063"/><stop stop-opacity="1" stop-color="rgb(70.960999%, 70.960999%, 70.960999%)" offset="0.171875"/><stop stop-opacity="1" stop-color="rgb(71.234131%, 71.234131%, 71.234131%)" offset="0.179688"/><stop stop-opacity="1" stop-color="rgb(71.505737%, 71.505737%, 71.505737%)" offset="0.1875"/><stop stop-opacity="1" stop-color="rgb(71.77887%, 71.77887%, 71.77887%)" offset="0.195312"/><stop stop-opacity="1" stop-color="rgb(72.052002%, 72.052002%, 72.052002%)" offset="0.203125"/><stop stop-opacity="1" stop-color="rgb(72.323608%, 72.323608%, 72.323608%)" offset="0.210938"/><stop stop-opacity="1" stop-color="rgb(72.596741%, 72.596741%, 72.596741%)" offset="0.21875"/><stop stop-opacity="1" stop-color="rgb(72.869873%, 72.869873%, 72.869873%)" offset="0.226563"/><stop stop-opacity="1" stop-color="rgb(73.141479%, 73.141479%, 73.141479%)" offset="0.234375"/><stop stop-opacity="1" stop-color="rgb(73.414612%, 73.414612%, 73.414612%)" offset="0.242188"/><stop stop-opacity="1" stop-color="rgb(73.687744%, 73.687744%, 73.687744%)" offset="0.25"/><stop stop-opacity="1" stop-color="rgb(73.959351%, 73.959351%, 73.959351%)" offset="0.257813"/><stop stop-opacity="1" stop-color="rgb(74.232483%, 74.232483%, 74.232483%)" offset="0.265625"/><stop stop-opacity="1" stop-color="rgb(74.505615%, 74.505615%, 74.505615%)" offset="0.273438"/><stop stop-opacity="1" stop-color="rgb(74.778748%, 74.778748%, 74.778748%)" offset="0.28125"/><stop stop-opacity="1" stop-color="rgb(75.050354%, 75.050354%, 75.050354%)" offset="0.289063"/><stop stop-opacity="1" stop-color="rgb(75.323486%, 75.323486%, 75.323486%)" offset="0.296875"/><stop stop-opacity="1" stop-color="rgb(75.596619%, 75.596619%, 75.596619%)" offset="0.304688"/><stop stop-opacity="1" stop-color="rgb(75.868225%, 75.868225%, 75.868225%)" offset="0.3125"/><stop stop-opacity="1" stop-color="rgb(76.141357%, 76.141357%, 76.141357%)" offset="0.320312"/><stop stop-opacity="1" stop-color="rgb(76.41449%, 76.41449%, 76.41449%)" offset="0.328125"/><stop stop-opacity="1" stop-color="rgb(76.686096%, 76.686096%, 76.686096%)" offset="0.335938"/><stop stop-opacity="1" stop-color="rgb(76.959229%, 76.959229%, 76.959229%)" offset="0.34375"/><stop stop-opacity="1" stop-color="rgb(77.232361%, 77.232361%, 77.232361%)" offset="0.351563"/><stop stop-opacity="1" stop-color="rgb(77.503967%, 77.503967%, 77.503967%)" offset="0.359375"/><stop stop-opacity="1" stop-color="rgb(77.7771%, 77.7771%, 77.7771%)" offset="0.367188"/><stop stop-opacity="1" stop-color="rgb(78.050232%, 78.050232%, 78.050232%)" offset="0.375"/><stop stop-opacity="1" stop-color="rgb(78.321838%, 78.321838%, 78.321838%)" offset="0.382813"/><stop stop-opacity="1" stop-color="rgb(78.594971%, 78.594971%, 78.594971%)" offset="0.390625"/><stop stop-opacity="1" stop-color="rgb(78.868103%, 78.868103%, 78.868103%)" offset="0.398438"/><stop stop-opacity="1" stop-color="rgb(79.141235%, 79.141235%, 79.141235%)" offset="0.40625"/><stop stop-opacity="1" stop-color="rgb(79.412842%, 79.412842%, 79.412842%)" offset="0.414062"/><stop stop-opacity="1" stop-color="rgb(79.685974%, 79.685974%, 79.685974%)" offset="0.421875"/><stop stop-opacity="1" stop-color="rgb(79.959106%, 79.959106%, 79.959106%)" offset="0.429688"/><stop stop-opacity="1" stop-color="rgb(80.230713%, 80.230713%, 80.230713%)" offset="0.4375"/><stop stop-opacity="1" stop-color="rgb(80.503845%, 80.503845%, 80.503845%)" offset="0.445313"/><stop stop-opacity="1" stop-color="rgb(80.776978%, 80.776978%, 80.776978%)" offset="0.453125"/><stop stop-opacity="1" stop-color="rgb(81.048584%, 81.048584%, 81.048584%)" offset="0.460938"/><stop stop-opacity="1" stop-color="rgb(81.321716%, 81.321716%, 81.321716%)" offset="0.46875"/><stop stop-opacity="1" stop-color="rgb(81.594849%, 81.594849%, 81.594849%)" offset="0.476563"/><stop stop-opacity="1" stop-color="rgb(81.866455%, 81.866455%, 81.866455%)" offset="0.484375"/><stop stop-opacity="1" stop-color="rgb(82.139587%, 82.139587%, 82.139587%)" offset="0.492188"/><stop stop-opacity="1" stop-color="rgb(82.41272%, 82.41272%, 82.41272%)" offset="0.5"/><stop stop-opacity="1" stop-color="rgb(82.684326%, 82.684326%, 82.684326%)" offset="0.507812"/><stop stop-opacity="1" stop-color="rgb(82.957458%, 82.957458%, 82.957458%)" offset="0.515625"/><stop stop-opacity="1" stop-color="rgb(83.230591%, 83.230591%, 83.230591%)" offset="0.523438"/><stop stop-opacity="1" stop-color="rgb(83.503723%, 83.503723%, 83.503723%)" offset="0.53125"/><stop stop-opacity="1" stop-color="rgb(83.77533%, 83.77533%, 83.77533%)" offset="0.539062"/><stop stop-opacity="1" stop-color="rgb(84.048462%, 84.048462%, 84.048462%)" offset="0.546875"/><stop stop-opacity="1" stop-color="rgb(84.321594%, 84.321594%, 84.321594%)" offset="0.554687"/><stop stop-opacity="1" stop-color="rgb(84.593201%, 84.593201%, 84.593201%)" offset="0.5625"/><stop stop-opacity="1" stop-color="rgb(84.866333%, 84.866333%, 84.866333%)" offset="0.570313"/><stop stop-opacity="1" stop-color="rgb(85.139465%, 85.139465%, 85.139465%)" offset="0.578125"/><stop stop-opacity="1" stop-color="rgb(85.411072%, 85.411072%, 85.411072%)" offset="0.585938"/><stop stop-opacity="1" stop-color="rgb(85.684204%, 85.684204%, 85.684204%)" offset="0.59375"/><stop stop-opacity="1" stop-color="rgb(85.957336%, 85.957336%, 85.957336%)" offset="0.601562"/><stop stop-opacity="1" stop-color="rgb(86.228943%, 86.228943%, 86.228943%)" offset="0.609375"/><stop stop-opacity="1" stop-color="rgb(86.502075%, 86.502075%, 86.502075%)" offset="0.617188"/><stop stop-opacity="1" stop-color="rgb(86.775208%, 86.775208%, 86.775208%)" offset="0.625"/><stop stop-opacity="1" stop-color="rgb(87.046814%, 87.046814%, 87.046814%)" offset="0.632812"/><stop stop-opacity="1" stop-color="rgb(87.319946%, 87.319946%, 87.319946%)" offset="0.640625"/><stop stop-opacity="1" stop-color="rgb(87.593079%, 87.593079%, 87.593079%)" offset="0.648437"/><stop stop-opacity="1" stop-color="rgb(87.866211%, 87.866211%, 87.866211%)" offset="0.65625"/><stop stop-opacity="1" stop-color="rgb(88.137817%, 88.137817%, 88.137817%)" offset="0.664063"/><stop stop-opacity="1" stop-color="rgb(88.41095%, 88.41095%, 88.41095%)" offset="0.671875"/><stop stop-opacity="1" stop-color="rgb(88.684082%, 88.684082%, 88.684082%)" offset="0.679688"/><stop stop-opacity="1" stop-color="rgb(88.955688%, 88.955688%, 88.955688%)" offset="0.6875"/><stop stop-opacity="1" stop-color="rgb(89.228821%, 89.228821%, 89.228821%)" offset="0.695312"/><stop stop-opacity="1" stop-color="rgb(89.501953%, 89.501953%, 89.501953%)" offset="0.703125"/><stop stop-opacity="1" stop-color="rgb(89.77356%, 89.77356%, 89.77356%)" offset="0.710938"/><stop stop-opacity="1" stop-color="rgb(90.046692%, 90.046692%, 90.046692%)" offset="0.71875"/><stop stop-opacity="1" stop-color="rgb(90.319824%, 90.319824%, 90.319824%)" offset="0.726562"/><stop stop-opacity="1" stop-color="rgb(90.591431%, 90.591431%, 90.591431%)" offset="0.734375"/><stop stop-opacity="1" stop-color="rgb(90.864563%, 90.864563%, 90.864563%)" offset="0.742187"/><stop stop-opacity="1" stop-color="rgb(91.137695%, 91.137695%, 91.137695%)" offset="0.75"/><stop stop-opacity="1" stop-color="rgb(91.409302%, 91.409302%, 91.409302%)" offset="0.757813"/><stop stop-opacity="1" stop-color="rgb(91.682434%, 91.682434%, 91.682434%)" offset="0.765625"/><stop stop-opacity="1" stop-color="rgb(91.955566%, 91.955566%, 91.955566%)" offset="0.773438"/><stop stop-opacity="1" stop-color="rgb(92.228699%, 92.228699%, 92.228699%)" offset="0.78125"/><stop stop-opacity="1" stop-color="rgb(92.500305%, 92.500305%, 92.500305%)" offset="0.789062"/><stop stop-opacity="1" stop-color="rgb(92.773438%, 92.773438%, 92.773438%)" offset="0.796875"/><stop stop-opacity="1" stop-color="rgb(93.04657%, 93.04657%, 93.04657%)" offset="0.804688"/><stop stop-opacity="1" stop-color="rgb(93.318176%, 93.318176%, 93.318176%)" offset="0.8125"/><stop stop-opacity="1" stop-color="rgb(93.591309%, 93.591309%, 93.591309%)" offset="0.820312"/><stop stop-opacity="1" stop-color="rgb(93.864441%, 93.864441%, 93.864441%)" offset="0.828125"/><stop stop-opacity="1" stop-color="rgb(94.136047%, 94.136047%, 94.136047%)" offset="0.835937"/><stop stop-opacity="1" stop-color="rgb(94.40918%, 94.40918%, 94.40918%)" offset="0.84375"/><stop stop-opacity="1" stop-color="rgb(94.682312%, 94.682312%, 94.682312%)" offset="0.851563"/><stop stop-opacity="1" stop-color="rgb(94.953918%, 94.953918%, 94.953918%)" offset="0.859375"/><stop stop-opacity="1" stop-color="rgb(95.227051%, 95.227051%, 95.227051%)" offset="0.867188"/><stop stop-opacity="1" stop-color="rgb(95.500183%, 95.500183%, 95.500183%)" offset="0.875"/><stop stop-opacity="1" stop-color="rgb(95.77179%, 95.77179%, 95.77179%)" offset="0.882812"/><stop stop-opacity="1" stop-color="rgb(96.044922%, 96.044922%, 96.044922%)" offset="0.890625"/><stop stop-opacity="1" stop-color="rgb(96.318054%, 96.318054%, 96.318054%)" offset="0.898438"/><stop stop-opacity="1" stop-color="rgb(96.591187%, 96.591187%, 96.591187%)" offset="0.90625"/><stop stop-opacity="1" stop-color="rgb(96.862793%, 96.862793%, 96.862793%)" offset="0.914062"/><stop stop-opacity="1" stop-color="rgb(97.135925%, 97.135925%, 97.135925%)" offset="0.921875"/><stop stop-opacity="1" stop-color="rgb(97.409058%, 97.409058%, 97.409058%)" offset="0.929687"/><stop stop-opacity="1" stop-color="rgb(97.680664%, 97.680664%, 97.680664%)" offset="0.9375"/><stop stop-opacity="1" stop-color="rgb(97.953796%, 97.953796%, 97.953796%)" offset="0.945313"/><stop stop-opacity="1" stop-color="rgb(98.226929%, 98.226929%, 98.226929%)" offset="0.953125"/><stop stop-opacity="1" stop-color="rgb(98.498535%, 98.498535%, 98.498535%)" offset="0.960938"/><stop stop-opacity="1" stop-color="rgb(98.771667%, 98.771667%, 98.771667%)" offset="0.96875"/><stop stop-opacity="1" stop-color="rgb(99.0448%, 99.0448%, 99.0448%)" offset="0.976562"/><stop stop-opacity="1" stop-color="rgb(99.316406%, 99.316406%, 99.316406%)" offset="0.984375"/><stop stop-opacity="1" stop-color="rgb(99.589539%, 99.589539%, 99.589539%)" offset="0.992188"/><stop stop-opacity="1" stop-color="rgb(99.862671%, 99.862671%, 99.862671%)" offset="1"/></linearGradient><clipPath id="defc224515"><path d="M 91.289062 91.289062 L 283.699219 91.289062 L 283.699219 283.699219 L 91.289062 283.699219 Z M 91.289062 91.289062 " clip-rule="nonzero"/></clipPath><clipPath id="ec6cfb24c0"><path d="M 187.496094 91.289062 C 134.363281 91.289062 91.289062 134.363281 91.289062 187.496094 C 91.289062 240.628906 134.363281 283.699219 187.496094 283.699219 C 240.628906 283.699219 283.699219 240.628906 283.699219 187.496094 C 283.699219 134.363281 240.628906 91.289062 187.496094 91.289062 Z M 187.496094 91.289062 " clip-rule="nonzero"/></clipPath><clipPath id="31530164fd"><path d="M 52.179688 194.597656 L 73.929688 194.597656 L 73.929688 216.347656 L 52.179688 216.347656 Z M 52.179688 194.597656 " clip-rule="nonzero"/></clipPath><clipPath id="cbc537e5a2"><path d="M 300.828125 194.597656 L 322.578125 194.597656 L 322.578125 216.347656 L 300.828125 216.347656 Z M 300.828125 194.597656 " clip-rule="nonzero"/></clipPath><clipPath id="9fe72f007d"><path d="M 119 136.226562 L 256 136.226562 L 256 205 L 119 205 Z M 119 136.226562 " clip-rule="nonzero"/></clipPath><clipPath id="ade5e9aa6d"><path d="M 115 136.226562 L 259 136.226562 L 259 209 L 115 209 Z M 115 136.226562 " clip-rule="nonzero"/></clipPath><clipPath id="a206cc100d"><path d="M 112.5 188 L 262 188 L 262 238.976562 L 112.5 238.976562 Z M 112.5 188 " clip-rule="nonzero"/></clipPath><clipPath id="5ec9473a2a"><path d="M 112.5 184 L 262.5 184 L 262.5 238.976562 L 112.5 238.976562 Z M 112.5 184 " clip-rule="nonzero"/></clipPath></defs><rect x="-37.5" width="450" fill="#ffffff" y="-37.499999" height="449.999989" fill-opacity="1"/><rect x="-37.5" width="450" fill="#fefefe" y="-37.499999" height="449.999989" fill-opacity="1"/><g clip-path="url(#0c0257e67c)"><g clip-path="url(#f85671239e)"><path fill="#f6f6f6" d="M 37.5 37.5 L 337.5 37.5 L 337.5 337.5 L 37.5 337.5 Z M 37.5 37.5 " fill-opacity="1" fill-rule="nonzero"/><path stroke-linecap="butt" transform="matrix(0.75, 0, 0, 0.75, 37.500002, 37.499998)" fill="none" stroke-linejoin="miter" d="M 200.00001 0.00000328333 C 89.54167 0.00000328333 -0.00000271667 89.541676 -0.00000271667 200.000016 C -0.00000271667 310.458357 89.54167 400.00003 200.00001 400.00003 C 310.458351 400.00003 400.000024 310.458357 400.000024 200.000016 C 400.000024 89.541676 310.458351 0.00000328333 200.00001 0.00000328333 Z M 200.00001 0.00000328333 " stroke="#000000" stroke-width="4" stroke-opacity="1" stroke-miterlimit="4"/></g></g><g clip-path="url(#69061380be)"><g clip-path="url(#24bc5b75ea)"><path fill="url(#c082467810)" d="M 91.289062 91.289062 L 91.289062 283.710938 L 283.710938 283.710938 L 283.710938 91.289062 Z M 91.289062 91.289062 " fill-rule="nonzero"/></g></g><g clip-path="url(#defc224515)"><g clip-path="url(#ec6cfb24c0)"><path stroke-linecap="butt" transform="matrix(0.75, 0, 0, 0.75, 91.290899, 91.290894)" fill="none" stroke-linejoin="miter" d="M 128.273602 -0.00244201 C 57.429847 -0.00244201 -0.00244801 57.429853 -0.00244801 128.273608 C -0.00244801 199.117363 57.429847 256.54445 128.273602 256.54445 C 199.117357 256.54445 256.544444 199.117363 256.544444 128.273608 C 256.544444 57.429853 199.117357 -0.00244201 128.273602 -0.00244201 Z M 128.273602 -0.00244201 " stroke="#000000" stroke-width="4" stroke-opacity="1" stroke-miterlimit="4"/></g></g><g clip-path="url(#31530164fd)"><path fill="#000000" d="M 63.171875 194.597656 C 62.101562 203.652344 61.234375 204.519531 52.179688 205.589844 C 52.199219 205.59375 52.21875 205.59375 52.238281 205.597656 C 61.238281 206.664062 62.105469 207.550781 63.171875 216.582031 C 64.246094 207.53125 65.113281 206.660156 74.164062 205.589844 C 65.113281 204.519531 64.246094 203.652344 63.171875 194.597656 Z M 63.171875 194.597656 " fill-opacity="1" fill-rule="nonzero"/></g><g clip-path="url(#cbc537e5a2)"><path fill="#000000" d="M 311.820312 194.597656 C 310.75 203.652344 309.878906 204.519531 300.828125 205.589844 C 300.847656 205.59375 300.867188 205.59375 300.882812 205.597656 C 309.882812 206.664062 310.75 207.550781 311.820312 216.582031 C 312.890625 207.53125 313.761719 206.660156 322.8125 205.589844 C 313.761719 204.519531 312.890625 203.652344 311.820312 194.597656 Z M 311.820312 194.597656 " fill-opacity="1" fill-rule="nonzero"/></g><g clip-path="url(#9fe72f007d)"><path fill="#ed5353" d="M 187.203125 136.800781 C 224.761719 136.800781 255.210938 167.308594 255.210938 204.941406 L 240.671875 204.941406 C 240.671875 175.351562 216.738281 151.363281 187.203125 151.363281 C 157.675781 151.363281 133.734375 175.351562 133.734375 204.941406 L 119.195312 204.941406 C 119.195312 167.308594 149.644531 136.800781 187.203125 136.800781 " fill-opacity="1" fill-rule="evenodd"/></g><g clip-path="url(#ade5e9aa6d)"><path stroke-linecap="butt" transform="matrix(0.147929, 0, 0, -0.148233, 112.204142, 240.373314)" fill="none" stroke-linejoin="miter" d="M 506.993166 698.713015 C 760.88928 698.713015 966.726015 492.903568 966.726015 239.027997 L 868.441945 239.027997 C 868.441945 438.644714 706.650838 600.472603 506.993166 600.472603 C 307.388306 600.472603 145.544387 438.644714 145.544387 239.027997 L 47.260317 239.027997 C 47.260317 492.903568 253.097052 698.713015 506.993166 698.713015 Z M 506.993166 698.713015 " stroke="#000000" stroke-width="6.802" stroke-opacity="1" stroke-miterlimit="2.613"/></g><path fill="#feb46b" d="M 187.203125 151.363281 C 216.738281 151.363281 240.671875 175.351562 240.671875 204.941406 L 228.210938 204.941406 C 228.210938 182.25 209.855469 163.847656 187.203125 163.847656 C 164.558594 163.847656 146.191406 182.25 146.191406 204.941406 L 133.734375 204.941406 C 133.734375 175.351562 157.675781 151.363281 187.203125 151.363281 " fill-opacity="1" fill-rule="evenodd"/><path stroke-linecap="butt" transform="matrix(0.147929, 0, 0, -0.148233, 112.204142, 240.373314)" fill="none" stroke-linejoin="miter" d="M 506.993166 600.472603 C 706.650838 600.472603 868.441945 438.644714 868.441945 239.027997 L 784.206001 239.027997 C 784.206001 392.107008 660.123022 516.251477 506.993166 516.251477 C 353.916123 516.251477 229.753925 392.107008 229.753925 239.027997 L 145.544387 239.027997 C 145.544387 438.644714 307.388306 600.472603 506.993166 600.472603 Z M 506.993166 600.472603 " stroke="#000000" stroke-width="6.802" stroke-opacity="1" stroke-miterlimit="2.613"/><path fill="#47b46b" d="M 187.203125 163.847656 C 209.855469 163.847656 228.210938 182.25 228.210938 204.941406 L 213.71875 204.941406 C 213.71875 190.269531 201.84375 178.375 187.203125 178.375 C 172.558594 178.375 160.691406 190.269531 160.691406 204.941406 L 146.191406 204.941406 C 146.191406 182.25 164.558594 163.847656 187.203125 163.847656 " fill-opacity="1" fill-rule="evenodd"/><path stroke-linecap="butt" transform="matrix(0.147929, 0, 0, -0.148233, 112.204142, 240.373314)" fill="none" stroke-linejoin="miter" d="M 506.993166 516.251477 C 660.123022 516.251477 784.206001 392.107008 784.206001 239.027997 L 686.238805 239.027997 C 686.238805 338.006266 605.963799 418.248234 506.993166 418.248234 C 407.996127 418.248234 327.773933 338.006266 327.773933 239.027997 L 229.753925 239.027997 C 229.753925 392.107008 353.916123 516.251477 506.993166 516.251477 Z M 506.993166 516.251477 " stroke="#000000" stroke-width="6.802" stroke-opacity="1" stroke-miterlimit="2.613"/><path fill="#5c85bc" d="M 187.203125 178.375 C 201.84375 178.375 213.71875 190.269531 213.71875 204.941406 L 200.179688 204.941406 C 200.179688 197.761719 194.367188 191.941406 187.203125 191.941406 C 180.039062 191.941406 174.222656 197.761719 174.222656 204.941406 L 160.691406 204.941406 C 160.691406 190.269531 172.558594 178.375 187.203125 178.375 " fill-opacity="1" fill-rule="evenodd"/><path stroke-linecap="butt" transform="matrix(0.147929, 0, 0, -0.148233, 112.204142, 240.373314)" fill="none" stroke-linejoin="miter" d="M 506.993166 418.248234 C 605.963799 418.248234 686.238805 338.006266 686.238805 239.027997 L 594.714735 239.027997 C 594.714735 287.46305 555.422232 326.727592 506.993166 326.727592 C 458.5641 326.727592 419.24519 287.46305 419.24519 239.027997 L 327.773933 239.027997 C 327.773933 338.006266 407.996127 418.248234 506.993166 418.248234 Z M 506.993166 418.248234 " stroke="#000000" stroke-width="6.802" stroke-opacity="1" stroke-miterlimit="2.613"/><g clip-path="url(#a206cc100d)"><path fill="#f6e7d7" d="M 242.070312 194.859375 C 240.71875 194.859375 239.398438 195 238.128906 195.253906 C 234.777344 190.871094 229.5 188.039062 223.566406 188.039062 C 215.230469 188.039062 208.191406 193.628906 205.972656 201.265625 C 200.429688 202.511719 196.285156 207.472656 196.285156 213.402344 C 196.285156 217.160156 197.949219 220.523438 200.582031 222.804688 C 200.246094 223.800781 200.058594 224.859375 200.058594 225.96875 C 200.058594 231.414062 204.46875 235.832031 209.90625 235.832031 C 212.464844 235.832031 214.800781 234.855469 216.550781 233.246094 C 218.804688 236.371094 222.46875 238.40625 226.613281 238.40625 C 230.484375 238.40625 233.9375 236.628906 236.214844 233.839844 C 238.066406 234.414062 240.03125 234.722656 242.070312 234.722656 C 253.054688 234.722656 261.960938 225.800781 261.960938 214.792969 C 261.960938 203.785156 253.054688 194.859375 242.070312 194.859375 Z M 132.855469 194.859375 C 134.203125 194.859375 135.519531 195 136.796875 195.253906 C 140.144531 190.871094 145.417969 188.039062 151.359375 188.039062 C 159.699219 188.039062 166.734375 193.628906 168.953125 201.265625 C 174.496094 202.511719 178.640625 207.472656 178.640625 213.402344 C 178.640625 217.160156 176.976562 220.523438 174.347656 222.804688 C 174.679688 223.800781 174.867188 224.859375 174.867188 225.96875 C 174.867188 231.414062 170.457031 235.832031 165.019531 235.832031 C 162.460938 235.832031 160.125 234.855469 158.375 233.246094 C 156.121094 236.371094 152.453125 238.40625 148.3125 238.40625 C 144.441406 238.40625 140.988281 236.628906 138.710938 233.839844 C 136.855469 234.414062 134.890625 234.722656 132.855469 234.722656 C 121.871094 234.722656 112.96875 225.800781 112.96875 214.792969 C 112.96875 203.785156 121.871094 194.859375 132.855469 194.859375 " fill-opacity="1" fill-rule="evenodd"/></g><g clip-path="url(#5ec9473a2a)"><path stroke-linecap="butt" transform="matrix(0.147929, 0, 0, -0.148233, 112.204142, 240.373314)" fill="none" stroke-linejoin="miter" d="M 877.895383 307.042617 C 868.75882 307.042617 859.833507 306.093943 851.251475 304.381061 C 828.59491 333.948052 792.920064 353.053282 752.808967 353.053282 C 696.458025 353.053282 648.873959 315.34351 633.875207 263.825268 C 596.404736 255.418967 568.387702 221.951874 568.387702 181.949474 C 568.387702 156.59881 579.636766 133.909702 597.434579 118.520109 C 595.163642 111.800339 593.896142 104.658935 593.896142 97.174955 C 593.896142 60.440209 623.7088 30.63605 660.466303 30.63605 C 677.762398 30.63605 693.553337 37.22406 705.383338 48.081101 C 720.619746 26.999468 745.38881 13.270054 773.405843 13.270054 C 799.574439 13.270054 822.917566 25.286585 838.312411 44.075591 C 850.828975 40.201841 864.111319 38.120029 877.895383 38.120029 C 952.149764 38.120029 1012.356019 98.308093 1012.356019 172.568147 C 1012.356019 246.828201 952.149764 307.042617 877.895383 307.042617 Z M 139.60298 307.042617 C 148.713137 307.042617 157.612044 306.093943 166.246889 304.381061 C 188.877047 333.948052 224.525487 353.053282 264.689397 353.053282 C 321.066745 353.053282 368.624405 315.34351 383.623156 263.825268 C 421.093628 255.418967 449.110661 221.951874 449.110661 181.949474 C 449.110661 156.59881 437.861598 133.909702 420.09019 118.520109 C 422.334722 111.800339 423.602222 104.658935 423.602222 97.174955 C 423.602222 60.440209 393.789563 30.63605 357.03206 30.63605 C 339.735965 30.63605 323.945026 37.22406 312.115025 48.081101 C 296.878618 26.999468 272.083147 13.270054 244.09252 13.270054 C 217.923924 13.270054 194.580797 25.286585 179.185952 44.075591 C 166.642983 40.201841 153.360638 38.120029 139.60298 38.120029 C 65.3486 38.120029 5.168751 98.308093 5.168751 172.568147 C 5.168751 246.828201 65.3486 307.042617 139.60298 307.042617 Z M 139.60298 307.042617 " stroke="#000000" stroke-width="6.802" stroke-opacity="1" stroke-miterlimit="2.613"/></g><g fill="#000000" fill-opacity="1"><g transform="translate(74.143529, 181.109227)"><g><path d="M -1.566406 -23.808594 C -5.125 -24.503906 -6.769531 -22.789062 -7.890625 -20.394531 C -7.949219 -23.441406 -9.847656 -26.121094 -13.328125 -26.804688 C -17.328125 -27.589844 -20.601562 -25.421875 -21.667969 -19.976562 L -24.214844 -6.972656 L 0.421875 -2.148438 L 1.53125 -7.816406 L -7.988281 -9.679688 L -6.996094 -14.753906 C -6.515625 -17.199219 -5.003906 -18.636719 -2.226562 -18.089844 L -0.929688 -17.835938 C 1.109375 -17.4375 2.476562 -17.363281 3.425781 -17.484375 L 4.527344 -23.117188 C 3.292969 -23.089844 2.136719 -23.082031 0.0976562 -23.484375 Z M -10.835938 -16.546875 L -12.027344 -10.472656 L -18.730469 -11.785156 L -17.542969 -17.859375 C -17.0625 -20.304688 -15.742188 -21.160156 -13.667969 -20.753906 C -11.371094 -20.304688 -10.335938 -19.101562 -10.835938 -16.546875 Z M -10.835938 -16.546875 "/></g></g></g><g fill="#000000" fill-opacity="1"><g transform="translate(80.145252, 153.03352)"><g><path d="M -0.757812 -9.117188 L -6.289062 -11.722656 L -0.824219 -23.332031 L -4.683594 -25.152344 L -10.148438 -13.539062 L -15.238281 -15.933594 L -9.289062 -28.570312 L -13.386719 -30.5 L -21.777344 -12.671875 L 0.933594 -1.980469 L 9.375 -19.910156 L 5.242188 -21.855469 Z M -0.757812 -9.117188 "/></g></g></g><g fill="#000000" fill-opacity="1"><g transform="translate(92.900866, 128.407245)"><g><path d="M -10.941406 -8.59375 L -7.734375 -13.167969 L -11.8125 -16.027344 L -15.019531 -11.453125 Z M 0.433594 -0.617188 L 3.640625 -5.191406 L -0.4375 -8.054688 L -3.644531 -3.480469 Z M 0.433594 -0.617188 "/></g></g></g><g fill="#000000" fill-opacity="1"><g transform="translate(98.5755, 119.089296)"><g><path d="M 11.136719 -9.824219 C 17.527344 -15.972656 17.570312 -20.9375 12.925781 -26.527344 L 8.65625 -22.417969 C 11.160156 -19.378906 11.292969 -16.519531 7.808594 -13.171875 C 4.191406 -9.691406 0.707031 -10.371094 -3.140625 -14.371094 C -7.039062 -18.421875 -7.476562 -22.035156 -3.832031 -25.542969 C -0.484375 -28.761719 2.257812 -28.46875 5.070312 -26.039062 L 9.3125 -30.121094 C 4.140625 -34.679688 -0.902344 -34.855469 -7.128906 -28.863281 C -13.929688 -22.320312 -12.28125 -15.214844 -7.464844 -10.210938 C -2.570312 -5.121094 4.335938 -3.28125 11.136719 -9.824219 Z M 11.136719 -9.824219 "/></g></g></g><g fill="#000000" fill-opacity="1"><g transform="translate(122.001568, 97.069836)"><g><path d="M 13.554688 -6.332031 C 22.09375 -10.777344 22.382812 -17.988281 19.191406 -24.117188 C 16.054688 -30.144531 9.914062 -34.179688 1.375 -29.738281 C -7.164062 -25.292969 -7.433594 -17.960938 -4.277344 -11.902344 C -1.074219 -5.738281 5.015625 -1.886719 13.554688 -6.332031 Z M 1.046875 -14.671875 C -1.515625 -19.59375 -1.351562 -23.039062 3.535156 -25.585938 C 8.425781 -28.128906 11.339844 -26.285156 13.902344 -21.363281 C 16.429688 -16.507812 16.265625 -13.0625 11.378906 -10.515625 C 6.488281 -7.972656 3.570312 -9.816406 1.046875 -14.671875 Z M 1.046875 -14.671875 "/></g></g></g><g fill="#000000" fill-opacity="1"><g transform="translate(151.316736, 82.378475)"><g><path d="M 15.699219 -28.707031 L 19.792969 -8.082031 C 19.136719 -9.261719 18.40625 -10.425781 17.753906 -11.375 L 6.59375 -26.898438 L -2.738281 -25.046875 L 2.148438 -0.425781 L 7.554688 -1.5 L 3.46875 -22.085938 C 4.089844 -20.898438 4.820312 -19.734375 5.625 -18.585938 L 16.660156 -3.304688 L 25.992188 -5.15625 L 21.105469 -29.777344 Z M 15.699219 -28.707031 "/></g></g></g><g fill="#000000" fill-opacity="1"><g transform="translate(182.457203, 76.626456)"><g><path d="M 23.003906 -23.265625 L 21.253906 -2.316406 C 20.949219 -3.628906 20.566406 -4.949219 20.203125 -6.039062 L 13.75 -24.039062 L 4.273438 -24.832031 L 2.183594 0.183594 L 7.671875 0.640625 L 9.421875 -20.273438 C 9.691406 -18.964844 10.074219 -17.644531 10.53125 -16.316406 L 16.925781 1.414062 L 26.40625 2.207031 L 28.496094 -22.808594 Z M 23.003906 -23.265625 "/></g></g></g><g fill="#000000" fill-opacity="1"><g transform="translate(214.064266, 79.986412)"><g><path d="M 9 -1.636719 L 11.058594 -7.394531 L 23.144531 -3.078125 L 24.578125 -7.09375 L 12.492188 -11.410156 L 14.382812 -16.707031 L 27.539062 -12.011719 L 29.0625 -16.277344 L 10.503906 -22.902344 L 2.0625 0.738281 L 20.726562 7.402344 L 22.261719 3.101562 Z M 9 -1.636719 "/></g></g></g><g fill="#000000" fill-opacity="1"><g transform="translate(239.518817, 89.143942)"><g><path d="M 11.839844 8.964844 C 19.132812 14.007812 24.007812 13.0625 28.566406 7.402344 L 23.691406 4.03125 C 21.210938 7.089844 18.433594 7.785156 14.457031 5.039062 C 10.328125 2.183594 10.304688 -1.367188 13.460938 -5.929688 C 16.660156 -10.554688 20.113281 -11.703125 24.273438 -8.824219 C 28.09375 -6.1875 28.351562 -3.4375 26.527344 -0.203125 L 31.371094 3.148438 C 34.8125 -2.828125 33.984375 -7.804688 26.871094 -12.71875 C 19.109375 -18.085938 12.472656 -15.054688 8.523438 -9.34375 C 4.507812 -3.535156 4.074219 3.597656 11.839844 8.964844 Z M 11.839844 8.964844 "/></g></g></g><g fill="#000000" fill-opacity="1"><g transform="translate(265.655464, 108.071353)"><g><path d="M 34.351562 1.796875 L 19.992188 -15.230469 L 16.53125 -12.308594 L 21.859375 -5.988281 L 6.132812 7.273438 L 9.832031 11.660156 L 25.558594 -1.605469 L 30.886719 4.714844 Z M 34.351562 1.796875 "/></g></g></g><g fill="#000000" fill-opacity="1"><g transform="translate(283.370439, 129.778469)"><g><path d="M 7.597656 5.097656 L 13.082031 2.402344 L 18.746094 13.917969 L 22.574219 12.035156 L 16.910156 0.519531 L 21.960938 -1.960938 L 28.121094 10.570312 L 32.1875 8.574219 L 23.492188 -9.109375 L 0.964844 1.964844 L 9.710938 19.75 L 13.808594 17.734375 Z M 7.597656 5.097656 "/></g></g></g><g fill="#000000" fill-opacity="1"><g transform="translate(295.168071, 154.163377)"><g><path d="M 27.453125 8.945312 L 25.03125 -2.886719 L 0.4375 2.144531 L 2.859375 13.980469 C 4.496094 21.964844 11.082031 24.394531 17.589844 23.0625 C 24.0625 21.738281 29.089844 16.933594 27.453125 8.945312 Z M 7.078125 11.804688 L 6.0625 6.851562 L 21.742188 3.640625 L 22.757812 8.597656 C 23.78125 13.589844 21.644531 16.144531 16.394531 17.21875 C 11.179688 18.285156 8.109375 16.835938 7.078125 11.804688 Z M 7.078125 11.804688 "/></g></g></g><g fill="#000000" fill-opacity="1"><g transform="translate(62.562763, 231.992147)"><g><path d="M 1.71875 4.296875 L 10.671875 -3.875 L 11.203125 -2.5 L 3.328125 4.484375 L 13.875 4.1875 L 14.40625 5.515625 L 2.296875 5.765625 Z M 1.71875 4.296875 "/></g></g></g><g fill="#000000" fill-opacity="1"><g transform="translate(71.033825, 250.885943)"><g><path d="M 0.59375 1.046875 L 10.5 -4.484375 L 11.15625 -3.296875 L 1.25 2.234375 Z M 0.59375 1.046875 "/></g></g></g><g fill="#000000" fill-opacity="1"><g transform="translate(78.058897, 262.567768)"><g><path d="M 0.71875 0.96875 L 9.859375 -5.75 L 12.015625 -2.8125 C 12.546875 -2.09375 12.859375 -1.421875 12.953125 -0.796875 C 13.054688 -0.171875 12.984375 0.398438 12.734375 0.921875 C 12.484375 1.441406 12.109375 1.882812 11.609375 2.25 C 11.035156 2.664062 10.40625 2.882812 9.71875 2.90625 C 9.03125 2.9375 8.34375 2.695312 7.65625 2.1875 L 5.21875 7.078125 L 4.265625 5.78125 L 6.6875 1.15625 L 6.625 1.078125 L 5.296875 -0.71875 L 1.515625 2.0625 Z M 6.140625 -1.34375 L 7.453125 0.4375 C 7.972656 1.132812 8.519531 1.519531 9.09375 1.59375 C 9.675781 1.664062 10.226562 1.507812 10.75 1.125 C 11.300781 0.71875 11.613281 0.242188 11.6875 -0.296875 C 11.769531 -0.847656 11.546875 -1.484375 11.015625 -2.203125 L 9.71875 -3.96875 Z M 6.140625 -1.34375 "/></g></g></g><g fill="#000000" fill-opacity="1"><g transform="translate(90.250337, 277.87873)"><g><path d="M 2.71875 2.75 L 9.984375 -4.4375 L 7.59375 -6.859375 L 8.390625 -7.65625 L 14.125 -1.859375 L 13.328125 -1.0625 L 10.9375 -3.484375 L 3.671875 3.703125 Z M 2.71875 2.75 "/></g></g></g><g fill="#000000" fill-opacity="1"><g transform="translate(104.139782, 290.927953)"><g><path d="M 4.140625 3.328125 C 3.515625 2.859375 3.039062 2.304688 2.71875 1.671875 C 2.394531 1.046875 2.273438 0.363281 2.359375 -0.375 C 2.441406 -1.113281 2.785156 -1.890625 3.390625 -2.703125 L 7.671875 -8.4375 L 8.765625 -7.625 L 4.484375 -1.875 C 3.816406 -0.988281 3.546875 -0.1875 3.671875 0.53125 C 3.796875 1.25 4.195312 1.863281 4.875 2.375 C 5.5625 2.882812 6.257812 3.09375 6.96875 3 C 7.6875 2.914062 8.378906 2.429688 9.046875 1.546875 L 13.328125 -4.203125 L 14.421875 -3.390625 L 10.140625 2.34375 C 9.535156 3.15625 8.890625 3.703125 8.203125 3.984375 C 7.515625 4.273438 6.820312 4.351562 6.125 4.21875 C 5.4375 4.09375 4.773438 3.796875 4.140625 3.328125 Z M 4.140625 3.328125 "/></g></g></g><g fill="#000000" fill-opacity="1"><g transform="translate(121.143009, 302.632006)"><g><path d="M 0.421875 0.21875 L 9.421875 -7.875 L 10.6875 -7.203125 L 9.09375 4.78125 L 7.8125 4.109375 L 8.265625 1.03125 L 3.984375 -1.21875 L 1.6875 0.890625 Z M 4.859375 -1.96875 L 8.421875 -0.109375 L 9.234375 -6.015625 Z M 4.859375 -1.96875 "/></g></g></g><g fill="#000000" fill-opacity="1"><g transform="translate(139.859014, 311.54317)"><g><path d="M 1.140625 0.390625 L 4.875 -10.3125 L 6.15625 -9.859375 L 2.78125 -0.171875 L 7.765625 1.5625 L 7.40625 2.578125 Z M 1.140625 0.390625 "/></g></g></g><g fill="#000000" fill-opacity="1"><g transform="translate(157.422145, 316.89667)"><g/></g></g><g fill="#000000" fill-opacity="1"><g transform="translate(171.401971, 319.488131)"><g><path d="M 6.140625 0.671875 C 5.023438 0.578125 4.085938 0.253906 3.328125 -0.296875 C 2.566406 -0.847656 2 -1.578125 1.625 -2.484375 C 1.25 -3.390625 1.109375 -4.425781 1.203125 -5.59375 C 1.296875 -6.75 1.597656 -7.75 2.109375 -8.59375 C 2.617188 -9.4375 3.289062 -10.070312 4.125 -10.5 C 4.957031 -10.9375 5.929688 -11.109375 7.046875 -11.015625 C 8.335938 -10.921875 9.363281 -10.53125 10.125 -9.84375 C 10.894531 -9.164062 11.351562 -8.257812 11.5 -7.125 L 9.984375 -7.234375 C 9.867188 -7.960938 9.5625 -8.5625 9.0625 -9.03125 C 8.5625 -9.5 7.859375 -9.765625 6.953125 -9.828125 C 6.140625 -9.890625 5.414062 -9.753906 4.78125 -9.421875 C 4.15625 -9.097656 3.648438 -8.601562 3.265625 -7.9375 C 2.890625 -7.269531 2.664062 -6.453125 2.59375 -5.484375 C 2.519531 -4.515625 2.617188 -3.671875 2.890625 -2.953125 C 3.160156 -2.234375 3.582031 -1.660156 4.15625 -1.234375 C 4.726562 -0.816406 5.421875 -0.578125 6.234375 -0.515625 C 7.140625 -0.453125 7.875 -0.609375 8.4375 -0.984375 C 9 -1.359375 9.390625 -1.878906 9.609375 -2.546875 L 11.125 -2.4375 C 10.8125 -1.375 10.222656 -0.566406 9.359375 -0.015625 C 8.503906 0.535156 7.429688 0.765625 6.140625 0.671875 Z M 6.140625 0.671875 "/></g></g></g><g fill="#000000" fill-opacity="1"><g transform="translate(193.119678, 320.372889)"><g><path d="M 6.34375 -0.390625 C 5.238281 -0.285156 4.242188 -0.441406 3.359375 -0.859375 C 2.484375 -1.273438 1.769531 -1.898438 1.21875 -2.734375 C 0.675781 -3.566406 0.351562 -4.5625 0.25 -5.71875 C 0.144531 -6.863281 0.285156 -7.894531 0.671875 -8.8125 C 1.054688 -9.738281 1.644531 -10.484375 2.4375 -11.046875 C 3.226562 -11.617188 4.175781 -11.957031 5.28125 -12.0625 C 6.394531 -12.15625 7.390625 -11.992188 8.265625 -11.578125 C 9.148438 -11.160156 9.863281 -10.535156 10.40625 -9.703125 C 10.945312 -8.867188 11.269531 -7.878906 11.375 -6.734375 C 11.476562 -5.578125 11.335938 -4.535156 10.953125 -3.609375 C 10.578125 -2.691406 9.992188 -1.945312 9.203125 -1.375 C 8.410156 -0.8125 7.457031 -0.484375 6.34375 -0.390625 Z M 6.234375 -1.578125 C 7.054688 -1.648438 7.769531 -1.898438 8.375 -2.328125 C 8.976562 -2.753906 9.421875 -3.332031 9.703125 -4.0625 C 9.984375 -4.789062 10.078125 -5.640625 9.984375 -6.609375 C 9.898438 -7.566406 9.65625 -8.375 9.25 -9.03125 C 8.84375 -9.695312 8.300781 -10.1875 7.625 -10.5 C 6.957031 -10.8125 6.210938 -10.929688 5.390625 -10.859375 C 4.566406 -10.785156 3.851562 -10.535156 3.25 -10.109375 C 2.65625 -9.679688 2.210938 -9.101562 1.921875 -8.375 C 1.640625 -7.644531 1.539062 -6.800781 1.625 -5.84375 C 1.71875 -4.875 1.96875 -4.054688 2.375 -3.390625 C 2.789062 -2.734375 3.332031 -2.25 4 -1.9375 C 4.664062 -1.625 5.410156 -1.503906 6.234375 -1.578125 Z M 6.234375 -1.578125 "/></g></g></g><g fill="#000000" fill-opacity="1"><g transform="translate(215.793533, 317.515198)"><g><path d="M 3.40625 -0.9375 L -2.671875 -11.03125 L -1.265625 -11.4375 L 3.734375 -2.71875 L 3.765625 -12.84375 L 5.21875 -13.265625 L 10.46875 -4.609375 L 10.21875 -14.65625 L 11.609375 -15.0625 L 11.640625 -3.28125 L 10.140625 -2.859375 L 5 -11.140625 L 4.875 -1.375 Z M 3.40625 -0.9375 "/></g></g></g><g fill="#000000" fill-opacity="1"><g transform="translate(240.320497, 309.503491)"><g><path d="M 5.78125 -2.640625 C 4.78125 -2.148438 3.796875 -1.9375 2.828125 -2 C 1.867188 -2.070312 0.984375 -2.398438 0.171875 -2.984375 C -0.640625 -3.578125 -1.304688 -4.394531 -1.828125 -5.4375 C -2.335938 -6.46875 -2.570312 -7.476562 -2.53125 -8.46875 C -2.5 -9.46875 -2.21875 -10.375 -1.6875 -11.1875 C -1.15625 -12.007812 -0.390625 -12.664062 0.609375 -13.15625 C 1.609375 -13.644531 2.59375 -13.851562 3.5625 -13.78125 C 4.53125 -13.71875 5.414062 -13.390625 6.21875 -12.796875 C 7.019531 -12.210938 7.675781 -11.40625 8.1875 -10.375 C 8.707031 -9.332031 8.953125 -8.3125 8.921875 -7.3125 C 8.898438 -6.320312 8.617188 -5.414062 8.078125 -4.59375 C 7.546875 -3.78125 6.78125 -3.128906 5.78125 -2.640625 Z M 5.265625 -3.703125 C 6.003906 -4.066406 6.570312 -4.554688 6.96875 -5.171875 C 7.375 -5.796875 7.578125 -6.5 7.578125 -7.28125 C 7.585938 -8.0625 7.375 -8.890625 6.9375 -9.765625 C 6.507812 -10.628906 5.984375 -11.289062 5.359375 -11.75 C 4.742188 -12.21875 4.070312 -12.476562 3.34375 -12.53125 C 2.613281 -12.59375 1.878906 -12.441406 1.140625 -12.078125 C 0.390625 -11.710938 -0.1875 -11.21875 -0.59375 -10.59375 C -1 -9.976562 -1.203125 -9.28125 -1.203125 -8.5 C -1.210938 -7.726562 -1.003906 -6.910156 -0.578125 -6.046875 C -0.140625 -5.171875 0.382812 -4.5 1 -4.03125 C 1.625 -3.5625 2.300781 -3.296875 3.03125 -3.234375 C 3.769531 -3.179688 4.515625 -3.335938 5.265625 -3.703125 Z M 5.265625 -3.703125 "/></g></g></g><g fill="#000000" fill-opacity="1"><g transform="translate(260.27695, 298.629609)"><g><path d="M 0.984375 -0.703125 L -5.59375 -9.953125 L -2.625 -12.0625 C -1.894531 -12.582031 -1.210938 -12.882812 -0.578125 -12.96875 C 0.046875 -13.050781 0.613281 -12.960938 1.125 -12.703125 C 1.632812 -12.441406 2.070312 -12.0625 2.4375 -11.5625 C 2.84375 -10.988281 3.054688 -10.351562 3.078125 -9.65625 C 3.097656 -8.96875 2.84375 -8.289062 2.3125 -7.625 L 7.171875 -5.09375 L 5.859375 -4.171875 L 1.265625 -6.640625 L 1.1875 -6.59375 L -0.625 -5.296875 L 2.09375 -1.484375 Z M -1.234375 -6.171875 L 0.5625 -7.453125 C 1.269531 -7.953125 1.664062 -8.488281 1.75 -9.0625 C 1.832031 -9.644531 1.679688 -10.203125 1.296875 -10.734375 C 0.910156 -11.285156 0.441406 -11.601562 -0.109375 -11.6875 C -0.660156 -11.78125 -1.300781 -11.566406 -2.03125 -11.046875 L -3.8125 -9.78125 Z M -1.234375 -6.171875 "/></g></g></g><g fill="#000000" fill-opacity="1"><g transform="translate(275.788634, 286.682999)"><g><path d="M 0.875 -0.828125 L -6.984375 -9 L -6.015625 -9.953125 L -2.453125 -6.25 L -2.59375 -13.234375 L -1.359375 -14.421875 L -1.28125 -8.25 L 6.546875 -6.296875 L 5.34375 -5.140625 L -1.234375 -6.8125 L -1.21875 -4.96875 L 1.84375 -1.78125 Z M 0.875 -0.828125 "/></g></g></g><g fill="#000000" fill-opacity="1"><g transform="translate(289.13701, 272.75775)"><g><path d="M 0.75 -0.9375 L -8.0625 -8.078125 L -7.203125 -9.125 L 1.609375 -1.984375 Z M 0.75 -0.9375 "/></g></g></g><g fill="#000000" fill-opacity="1"><g transform="translate(297.416873, 261.888007)"><g><path d="M 0.625 -1.03125 L -9.046875 -6.953125 L -8.328125 -8.109375 L 2.578125 -8.515625 L -5.171875 -13.265625 L -4.46875 -14.421875 L 5.203125 -8.5 L 4.5 -7.34375 L -6.40625 -6.9375 L 1.34375 -2.1875 Z M 0.625 -1.03125 "/></g></g></g><g fill="#000000" fill-opacity="1"><g transform="translate(307.823851, 243.399591)"><g><path d="M 2.453125 -5.5625 C 2.054688 -4.570312 1.476562 -3.800781 0.71875 -3.25 C -0.03125 -2.695312 -0.894531 -2.378906 -1.875 -2.296875 C -2.863281 -2.210938 -3.890625 -2.390625 -4.953125 -2.828125 C -6.023438 -3.265625 -6.882812 -3.859375 -7.53125 -4.609375 C -8.1875 -5.359375 -8.585938 -6.207031 -8.734375 -7.15625 C -8.890625 -8.101562 -8.753906 -9.097656 -8.328125 -10.140625 C -7.847656 -11.328125 -7.164062 -12.195312 -6.28125 -12.75 C -5.394531 -13.300781 -4.398438 -13.488281 -3.296875 -13.3125 L -3.890625 -11.859375 C -4.585938 -11.972656 -5.222656 -11.835938 -5.796875 -11.453125 C -6.378906 -11.078125 -6.835938 -10.484375 -7.171875 -9.671875 C -7.484375 -8.890625 -7.582031 -8.144531 -7.46875 -7.4375 C -7.363281 -6.726562 -7.050781 -6.085938 -6.53125 -5.515625 C -6.019531 -4.953125 -5.316406 -4.488281 -4.421875 -4.125 C -3.535156 -3.757812 -2.707031 -3.597656 -1.9375 -3.640625 C -1.175781 -3.691406 -0.507812 -3.921875 0.0625 -4.328125 C 0.632812 -4.742188 1.066406 -5.316406 1.359375 -6.046875 C 1.816406 -7.171875 1.832031 -8.148438 1.40625 -8.984375 C 0.976562 -9.816406 0.210938 -10.515625 -0.890625 -11.078125 L -2.125 -8.03125 L -3.125 -8.4375 L -1.375 -12.765625 L 4.25 -10.484375 L 3.78125 -9.328125 L 2.015625 -9.921875 C 2.460938 -9.285156 2.738281 -8.625 2.84375 -7.9375 C 2.945312 -7.257812 2.816406 -6.46875 2.453125 -5.5625 Z M 2.453125 -5.5625 "/></g></g></g></svg>